<svg width="120" height="120" aria-label="Velocidad" style="overflow: hidden;" font-family="arial">
  <defs id="defs">
    <mask id="bola">
      <g>
        <rect width="100%" height="100%" fill="white" />
        <circle cx="59.5" cy="59.5" r="54" stroke="black" stroke-width="1" fill="black" />
      </g>
    </mask>
  </defs>
  <g>
    <g class="coloreado" stroke="#333333" stroke-width="1" fill-opacity="0.7" fill="#333333">
       <circle class="bola"  cx="20"   cy="20"   r="15" mask="url(#bola)" />
       <circle class="borde" cx="59.5" cy="59.5" r="54" />
       <g transform="rotate(-45 17 17)">
         <text class="id" text-anchor="middle" x="18" y="20" font-size="14" stroke="none" stroke-width="0" fill="white">?</text>
       </g>
    </g>
    <circle class="esfera" cx="59.5" cy="59.5" r="48" stroke="#e0e0e0" stroke-width="2" fill="#f7f7f7"></circle>
    <!-- Areas aviso -->
    <path class="rojo" d="M100.65069943049662,43.161928975936064A44,44,0,0,1,101.84648671698676,73.59674775249769L91.38486503774007,70.19756081437326A33,33,0,0,0,90.48802457287246,47.371446731952034Z" stroke="none" stroke-width="0" fill="#ff9900"></path>
    <path class="naranja" d="M101.84648671698676,73.59674775249768A44,44,0,0,1,91.11269837220809,91.11269837220809L83.3345237791561,83.33452377915604A33,33,0,0,0,91.38486503774007,70.19756081437326Z" stroke="none" stroke-width="0" fill="#dc3912"></path>

    <text class="titulo" text-anchor="middle" x="60" y="49.2" font-size="12" stroke="none" stroke-width="0" fill="#333333">?</text>
    <text class="min" text-anchor="start" x="37.231161645793165" y="84.86883835420683" font-size="6" stroke="none" stroke-width="0" fill="#333333">0</text>
    <text class="max" text-anchor="end" x="82.76883835420686" y="84.8688383542068" font-size="6" stroke="none" stroke-width="0" fill="#333333">100</text>

    <path class="ticksSecundarios" d="M26.235449491577945,80.69094316275158L22.483832768419944,82.98993684750175M22.33816195471192,72.23707297724792L18.153513283013247,73.59674775249769M20.522073584168133,63.10698019082267L16.135637315742372,63.45220021202518M20.887541712432544,53.80519518440686L16.54171301381394,53.11688353822985M27.962927022752076,36.72370400921807L24.40325224750231,34.137448899131186M34.281857286124705,29.88792376223879L31.4242858734719,26.542137513598654M42.02197621031394,24.716141642140634L40.024418011459936,20.79571293571182M50.75556359130616,21.494151152252L49.728403990340176,17.21572350250223M69.24443640869383,21.494151152252L70.27159600965982,17.21572350250222M77.97802378968605,24.716141642140627L79.97558198854006,20.795712935711805M85.71814271387528,29.887923762238778L88.57571412652808,26.542137513598647M92.03707297724792,36.723704009218054L95.59674775249769,34.13744889913117M99.11245828756745,53.80519518440685L103.45828698618607,53.11688353822983M99.47792641583187,63.10698019082263L103.86436268425763,63.45220021202515M97.66183804528808,72.2370729772479L101.84648671698676,73.59674775249768M93.76455050842208,80.69094316275155L97.51616723158008,82.98993684750172" stroke="#666666" stroke-width="1" fill-opacity="1" fill="none"></path>
    <path class="ticksPrincipales" d="M35.10984130223353,84.89015869776648L28.887301627791913,91.11269837220809M27.4794404556027,46.52954318074886L19.34930056950337,43.16192897593608M59.99999999999999,24.799999999999997L59.99999999999999,16M92.5205595443973,46.529543180748846L100.65069943049662,43.161928975936064M84.89015869776651,84.89015869776645L91.11269837220813,91.11269837220806" stroke="#333333" stroke-width="2" fill-opacity="1" fill="none"></path>

    <text class="unidad" text-anchor="middle" x="60" y="103" font-size="5" stroke="none" stroke-width="0" fill="#000000">%</text>
    <g class="actual">
      <path class="aguja" transform-origin="60 60" d="M30.301515190165006,89.698484809835C57.82211111394543,57.82211111394543,68.10344371239783,49.7186674015476,69.19238815542512,50.80761184457488C70.28133259845241,51.89655628760216,62.17788888605457,62.17788888605457,30.301515190165006,89.698484809835" stroke="#c63310" stroke-width="1" fill-opacity="0.7" fill="#dc3912"></path>
      <circle class="topo" cx="60" cy="60" r="9" stroke="#666666" stroke-width="1" fill="#4684ee"></circle>
      <text class="valor" text-anchor="middle" x="60" y="62.5" font-size="9" stroke="none" stroke-width="0" fill="#333333">0</text>
    </g>
    <g class="max">
      <text class="valor" text-anchor="middle" x="60" y="97.2" font-size="12" stroke="none" stroke-width="0" fill="#000000">0</text>
      <line class="aguja" x1="55" y1="65" x2="40" y2="80" transform-origin="60 60" stroke="blue" />
    </g>
  </g>
</svg>

