<?xml version="1.0" encoding="UTF-8" standalone="no"?>
<!-- Created with Inkscape (http://www.inkscape.org/) -->

<svg
   xmlns:dc="http://purl.org/dc/elements/1.1/"
   xmlns:cc="http://creativecommons.org/ns#"
   xmlns:rdf="http://www.w3.org/1999/02/22-rdf-syntax-ns#"
   xmlns:svg="http://www.w3.org/2000/svg"
   xmlns="http://www.w3.org/2000/svg"
   xmlns:xlink="http://www.w3.org/1999/xlink"
   xmlns:sodipodi="http://sodipodi.sourceforge.net/DTD/sodipodi-0.dtd"
   xmlns:inkscape="http://www.inkscape.org/namespaces/inkscape"
   width="1018"
   height="509"
   id="svg2"
   version="1.1"
   inkscape:version="0.48.4 r9939"
   sodipodi:docname="drawing2.svg">
  <defs
     id="defs4" />
  <sodipodi:namedview
     id="base"
     pagecolor="#ffffff"
     bordercolor="#666666"
     borderopacity="1.0"
     inkscape:pageopacity="0.0"
     inkscape:pageshadow="2"
     inkscape:zoom="8.6408449"
     inkscape:cx="325.15796"
     inkscape:cy="135.75803"
     inkscape:document-units="px"
     inkscape:current-layer="g3901"
     showgrid="true"
     inkscape:window-width="1535"
     inkscape:window-height="876"
     inkscape:window-x="65"
     inkscape:window-y="24"
     inkscape:window-maximized="1"
     width="1000px"
     fit-margin-top="0"
     fit-margin-left="0"
     fit-margin-right="0"
     fit-margin-bottom="0"
     inkscape:snap-to-guides="false"
     inkscape:snap-grids="false" />
  <metadata
     id="metadata7">
    <rdf:RDF>
      <cc:Work
         rdf:about="">
        <dc:format>image/svg+xml</dc:format>
        <dc:type
           rdf:resource="http://purl.org/dc/dcmitype/StillImage" />
        <dc:title></dc:title>
      </cc:Work>
    </rdf:RDF>
  </metadata>
  <g
     inkscape:groupmode="layer"
     id="layer2"
     inkscape:label="Fondo"
     transform="translate(105.69385,-201.07565)"
     style="opacity:0.25925927;display:inline"
     sodipodi:insensitive="true">
    <image
       sodipodi:absref="/home/fiol/fondo_maqueta.jpg"
       xlink:href="fondo_maqueta.jpg"
       width="1018"
       height="509"
       id="image3914"
       x="-105.69385"
       y="201.07565" />
  </g>
  <g
     inkscape:label="desvios"
     inkscape:groupmode="layer"
     id="layer1"
     transform="translate(105.69385,-201.07565)"
     style="display:inline">
    <g
       transform="matrix(0.33585352,0,0,-0.29386087,78.200619,873.43675)"
       id="desvio1"
       inkscape:label="#desvio1">
      <path
         style="fill:none;stroke:#ff0000;stroke-width:3;stroke-linecap:butt;stroke-linejoin:miter;stroke-miterlimit:4;stroke-opacity:1;stroke-dasharray:none"
         d="m 5.8288879,801.11666 c 57.6163551,-0.20809 88.1934541,26.4275 88.1934541,26.4275"
         id="path3921"
         inkscape:connector-curvature="0"
         sodipodi:nodetypes="cc" />
      <path
         style="fill:none;stroke:#009c00;stroke-width:3;stroke-linecap:butt;stroke-linejoin:miter;stroke-miterlimit:4;stroke-opacity:1;stroke-dasharray:none"
         d="m 5.6151059,801.14723 c 88.6210181,0 89.1092891,0 89.1092891,0"
         id="path3923"
         inkscape:connector-curvature="0"
         inkscape:label="#d1-verde" />
      <rect
         style="fill:#0000ff;fill-opacity:0.23529412;stroke:#0000ff;stroke-width:3;stroke-miterlimit:4;stroke-opacity:0.04566208;stroke-dasharray:none"
         id="rect3925"
         width="173.40936"
         height="92.255112"
         x="-67.22332"
         y="744.16241"
         inkscape:label="#d1" />
    </g>
    <g
       id="desvio2"
       transform="matrix(-0.33585352,0,0,0.29386087,149.60397,382.5313)">
      <path
         sodipodi:nodetypes="cc"
         inkscape:connector-curvature="0"
         id="path3929"
         d="m 5.8288879,801.11666 c 57.6163551,-0.20809 88.1934541,26.4275 88.1934541,26.4275"
         style="fill:none;stroke:#ff0000;stroke-width:3;stroke-linecap:butt;stroke-linejoin:miter;stroke-miterlimit:4;stroke-opacity:1;stroke-dasharray:none" />
      <path
         inkscape:label="#d2-verde"
         inkscape:connector-curvature="0"
         id="path3931"
         d="m 5.6151059,801.14723 c 88.6210181,0 89.1092891,0 89.1092891,0"
         style="fill:none;stroke:#009c00;stroke-width:3;stroke-linecap:butt;stroke-linejoin:miter;stroke-miterlimit:4;stroke-opacity:1;stroke-dasharray:none" />
      <rect
         y="754.14697"
         x="-95.902039"
         height="96.959236"
         width="199.92667"
         id="rect3933"
         style="fill:#0000ff;fill-opacity:0.23529412;stroke:#0000ff;stroke-width:3;stroke-miterlimit:4;stroke-opacity:0.04566208;stroke-dasharray:none" />
    </g>
    <g
       id="desvio3"
       transform="matrix(0.33585352,0,0,0.29386087,124.22169,402.63697)">
      <path
         sodipodi:nodetypes="cc"
         inkscape:connector-curvature="0"
         id="d1-rojo"
         d="m 5.8288879,801.11666 c 57.6163551,-0.20809 88.1934541,26.4275 88.1934541,26.4275"
         style="fill:none;stroke:#ff0000;stroke-width:3;stroke-linecap:butt;stroke-linejoin:miter;stroke-miterlimit:4;stroke-opacity:1;stroke-dasharray:none" />
      <path
         inkscape:label="#d3-verde"
         inkscape:connector-curvature="0"
         id="d1-verde"
         d="m 5.6151059,801.14723 c 88.6210181,0 89.1092891,0 89.1092891,0"
         style="fill:none;stroke:#009c00;stroke-width:3;stroke-linecap:butt;stroke-linejoin:miter;stroke-miterlimit:4;stroke-opacity:1;stroke-dasharray:none" />
      <rect
         y="787.04156"
         x="-27.028063"
         height="94.614807"
         width="204.04337"
         id="d3"
         style="fill:#0000ff;fill-opacity:0.23529412;stroke:#0000ff;stroke-width:3;stroke-miterlimit:4;stroke-opacity:0.04566208;stroke-dasharray:none" />
      <path
         style="fill:none;stroke:#000000;stroke-width:3;stroke-linecap:butt;stroke-linejoin:miter;stroke-opacity:1"
         d="m 231.74518,436.91913 c -15.99084,0 -16.05187,0 -16.05187,0"
         id="path4001"
         inkscape:connector-curvature="0"
         transform="matrix(2.9774885,0,0,3.4029709,-684.57088,-685.90731)" />
    </g>
    <g
       id="desvio4"
       transform="matrix(0.27731042,0.18946376,0.16577461,-0.24263757,66.841323,532.59675)">
      <path
         sodipodi:nodetypes="cc"
         inkscape:connector-curvature="0"
         id="path3987"
         d="m 5.8288879,801.11666 c 57.6163551,-0.20809 88.1934541,26.4275 88.1934541,26.4275"
         style="fill:none;stroke:#ff0000;stroke-width:3;stroke-linecap:butt;stroke-linejoin:miter;stroke-miterlimit:4;stroke-opacity:1;stroke-dasharray:none" />
      <path
         inkscape:label="#d4-verde"
         inkscape:connector-curvature="0"
         id="path3989"
         d="m 5.6151059,801.14723 c 88.6210181,0 89.1092891,0 89.1092891,0"
         style="fill:none;stroke:#009c00;stroke-width:3;stroke-linecap:butt;stroke-linejoin:miter;stroke-miterlimit:4;stroke-opacity:1;stroke-dasharray:none" />
      <rect
         y="761.7948"
         x="-76.19574"
         height="103.98676"
         width="253.0345"
         id="rect3991"
         style="fill:#0000ff;fill-opacity:0.23529412;stroke:#0000ff;stroke-width:3;stroke-miterlimit:4;stroke-opacity:0.04566208;stroke-dasharray:none" />
    </g>
    <g
       id="desvio5"
       transform="matrix(0.33585352,0,0,0.29386087,374.90525,114.51806)">
      <path
         sodipodi:nodetypes="cc"
         inkscape:connector-curvature="0"
         id="path3979"
         d="m 5.8288879,801.11666 c 57.6163551,-0.20809 88.1934541,26.4275 88.1934541,26.4275"
         style="fill:none;stroke:#ff0000;stroke-width:3;stroke-linecap:butt;stroke-linejoin:miter;stroke-miterlimit:4;stroke-opacity:1;stroke-dasharray:none" />
      <path
         inkscape:label="#d5-verde"
         inkscape:connector-curvature="0"
         id="path3981"
         d="m 5.6151059,801.14723 c 88.6210181,0 89.1092891,0 89.1092891,0"
         style="fill:none;stroke:#009c00;stroke-width:3;stroke-linecap:butt;stroke-linejoin:miter;stroke-miterlimit:4;stroke-opacity:1;stroke-dasharray:none" />
      <rect
         y="767.23566"
         x="-62.956203"
         height="93.10495"
         width="226.55542"
         id="rect3983"
         style="fill:#0000ff;fill-opacity:0.23529412;stroke:#0000ff;stroke-width:3;stroke-miterlimit:4;stroke-opacity:0.04566208;stroke-dasharray:none" />
      <path
         style="fill:none;stroke:#000000;stroke-width:3;stroke-linecap:butt;stroke-linejoin:miter;stroke-opacity:1"
         d="m 482.49957,148.72215 c -23.9601,0 -44.00781,0 -60.78197,0 -85.83234,0 -85.95314,0 -85.95314,0 l -0.3337,-0.19266"
         id="path3995"
         inkscape:connector-curvature="0"
         transform="matrix(2.9774885,0,0,3.4029709,-1430.9783,294.55296)"
         sodipodi:nodetypes="cscc" />
    </g>
    <g
       transform="matrix(0.33585352,0,0,0.29386087,455.69587,114.51806)"
       id="desvio6">
      <path
         style="fill:none;stroke:#ff0000;stroke-width:3;stroke-linecap:butt;stroke-linejoin:miter;stroke-miterlimit:4;stroke-opacity:1;stroke-dasharray:none"
         d="m 5.8288879,801.11666 c 57.6163551,-0.20809 88.1934541,26.4275 88.1934541,26.4275"
         id="path3971"
         inkscape:connector-curvature="0"
         sodipodi:nodetypes="cc" />
      <path
         style="fill:none;stroke:#009c00;stroke-width:3;stroke-linecap:butt;stroke-linejoin:miter;stroke-miterlimit:4;stroke-opacity:1;stroke-dasharray:none"
         d="m 5.6151059,801.14723 c 88.6210181,0 89.1092891,0 89.1092891,0"
         id="path3973"
         inkscape:connector-curvature="0"
         inkscape:label="#d6-verde" />
      <rect
         style="fill:#0000ff;fill-opacity:0.23529412;stroke:#0000ff;stroke-width:3;stroke-miterlimit:4;stroke-opacity:0.04566208;stroke-dasharray:none"
         id="rect3975"
         width="234.69318"
         height="96.449226"
         x="-67.025078"
         y="765.56354" />
      <path
         style="fill:none;stroke:#000000;stroke-width:3;stroke-linecap:butt;stroke-linejoin:miter;stroke-opacity:1"
         d="m 563.34159,148.90082 c -51.14629,0 -51.02421,0 -51.02421,0"
         id="entrada-d6"
         inkscape:connector-curvature="0"
         transform="matrix(2.9774885,0,0,3.4029709,-1671.5314,294.55296)"
         sodipodi:nodetypes="cc" />
    </g>
    <g
       transform="matrix(0.33585352,0,0,0.29386087,597.18861,297.10311)"
       id="desvio7">
      <path
         style="fill:none;stroke:#ff0000;stroke-width:3;stroke-linecap:butt;stroke-linejoin:miter;stroke-miterlimit:4;stroke-opacity:1;stroke-dasharray:none"
         d="m 5.8288879,801.11666 c 57.6163551,-0.20809 88.1934541,26.4275 88.1934541,26.4275"
         id="path3955"
         inkscape:connector-curvature="0"
         sodipodi:nodetypes="cc" />
      <path
         style="fill:none;stroke:#009c00;stroke-width:3;stroke-linecap:butt;stroke-linejoin:miter;stroke-miterlimit:4;stroke-opacity:1;stroke-dasharray:none"
         d="m 5.6151059,801.14723 c 88.6210181,0 89.1092891,0 89.1092891,0"
         id="path3957"
         inkscape:connector-curvature="0"
         inkscape:label="#d7-verde" />
      <rect
         style="fill:#0000ff;fill-opacity:0.23529412;stroke:#0000ff;stroke-width:3;stroke-miterlimit:4;stroke-opacity:0.04566208;stroke-dasharray:none"
         id="rect3959"
         width="236.72762"
         height="97.285301"
         x="-68.042297"
         y="765.14551" />
    </g>
    <g
       id="desvio8"
       transform="matrix(0.33585352,0,0,0.29386087,620.72971,352.74683)">
      <path
         sodipodi:nodetypes="cc"
         inkscape:connector-curvature="0"
         id="path3939"
         d="m 5.8288879,801.11666 c 57.6163551,-0.20809 88.1934541,26.4275 88.1934541,26.4275"
         style="fill:none;stroke:#ff0000;stroke-width:3;stroke-linecap:butt;stroke-linejoin:miter;stroke-miterlimit:4;stroke-opacity:1;stroke-dasharray:none" />
      <path
         inkscape:label="#d8-verde"
         inkscape:connector-curvature="0"
         id="path3941"
         d="m 5.6151059,801.14723 c 88.6210181,0 89.1092891,0 89.1092891,0"
         style="fill:none;stroke:#009c00;stroke-width:3;stroke-linecap:butt;stroke-linejoin:miter;stroke-miterlimit:4;stroke-opacity:1;stroke-dasharray:none" />
      <rect
         y="765.78717"
         x="-88.504921"
         height="96.001892"
         width="189.5544"
         id="rect3943"
         style="fill:#0000ff;fill-opacity:0.23529412;stroke:#0000ff;stroke-width:3;stroke-miterlimit:4;stroke-opacity:0.04566208;stroke-dasharray:none" />
    </g>
    <g
       transform="matrix(-0.33585352,0,0,-0.29386087,692.07202,843.22504)"
       id="desvio9">
      <path
         style="fill:none;stroke:#ff0000;stroke-width:3;stroke-linecap:butt;stroke-linejoin:miter;stroke-miterlimit:4;stroke-opacity:1;stroke-dasharray:none"
         d="m 5.8288879,801.11666 c 57.6163551,-0.20809 88.1934541,26.4275 88.1934541,26.4275"
         id="path3947"
         inkscape:connector-curvature="0"
         sodipodi:nodetypes="cc" />
      <path
         style="fill:none;stroke:#009c00;stroke-width:3;stroke-linecap:butt;stroke-linejoin:miter;stroke-miterlimit:4;stroke-opacity:1;stroke-dasharray:none"
         d="m 5.6151059,801.14723 c 88.6210181,0 89.1092891,0 89.1092891,0"
         id="path3949"
         inkscape:connector-curvature="0"
         inkscape:label="#d9-verde" />
      <rect
         style="fill:#0000ff;fill-opacity:0.23529412;stroke:#0000ff;stroke-width:3;stroke-miterlimit:4;stroke-opacity:0.04566208;stroke-dasharray:none"
         id="rect3951"
         width="193.8147"
         height="102.59898"
         x="-84.09288"
         y="742.5152" />
    </g>
    <g
       id="desvio10"
       transform="matrix(-0.33585352,0,0,-0.29386087,750.07202,823.22504)">
      <path
         sodipodi:nodetypes="cc"
         inkscape:connector-curvature="0"
         id="path3963"
         d="m 5.8288879,801.11666 c 57.6163551,-0.20809 88.1934541,26.4275 88.1934541,26.4275"
         style="fill:none;stroke:#ff0000;stroke-width:3;stroke-linecap:butt;stroke-linejoin:miter;stroke-miterlimit:4;stroke-opacity:1;stroke-dasharray:none" />
      <path
         inkscape:label="#d10-verde"
         inkscape:connector-curvature="0"
         id="path3965"
         d="m 5.6151059,801.14723 c 88.6210181,0 89.1092891,0 89.1092891,0"
         style="fill:none;stroke:#009c00;stroke-width:3;stroke-linecap:butt;stroke-linejoin:miter;stroke-miterlimit:4;stroke-opacity:1;stroke-dasharray:none" />
      <rect
         y="774.55139"
         x="-63.927277"
         height="94.922295"
         width="209.9935"
         id="rect3967"
         style="fill:#0000ff;fill-opacity:0.23529412;stroke:#0000ff;stroke-width:3;stroke-miterlimit:4;stroke-opacity:0.04566208;stroke-dasharray:none" />
    </g>
  </g>
  <g
     inkscape:groupmode="layer"
     id="layer5"
     inkscape:label="semaforos">
    <g
       id="SEM-S1">
      <rect
         y="374"
         x="287.5"
         height="22.5"
         width="25"
         id="rect3878"
         style="fill:#0000ff;fill-opacity:0.23529412;stroke:#0000ff;stroke-width:1;stroke-miterlimit:4;stroke-opacity:0.04566208;stroke-dasharray:none" />
      <path
         sodipodi:nodetypes="csssssc"
         inkscape:connector-curvature="0"
         id="path3105"
         d="m 305,381.5 0,7.5 c 0,2.5 -2.5,5 -5,5 -2.5,0 -5,-2.5 -5,-5 0,0 0,-5 0,-7.5 0,-2.5 2.5,-5 5,-5 2.5,0 5,2.5 5,5"
         style="fill:#000000;fill-opacity:0.36529685;stroke:#000000;stroke-width:1px;stroke-linecap:butt;stroke-linejoin:miter;stroke-opacity:1" />
      <g
         id="g3901">
        <path
           sodipodi:type="arc"
           style="fill:#ff0000;fill-opacity:1;stroke:#0000ff;stroke-width:0.64287961;stroke-miterlimit:4;stroke-opacity:0.04566208;stroke-dasharray:none"
           id="SEM-S1-rojo"
           sodipodi:cx="300"
           sodipodi:cy="381.5"
           sodipodi:rx="2.5"
           sodipodi:ry="2.5"
           d="m 302.5,381.5 a 2.5,2.5 0 1 1 -5,0 2.5,2.5 0 1 1 5,0 z"
           transform="matrix(1.5555012,0,0,1.5555012,-166.65037,-211.92372)" />
        <path
           sodipodi:type="arc"
           style="fill:#00db00;fill-opacity:1;stroke:#0000ff;stroke-width:0.64287961000000005;stroke-miterlimit:4;stroke-opacity:0.04566208000000000;stroke-dasharray:none"
           id="SEM-S1-verde"
           sodipodi:cx="300"
           sodipodi:cy="389"
           sodipodi:rx="2.5"
           sodipodi:ry="2.5"
           d="m 302.5,389 a 2.5,2.5 0 1 1 -5,0 2.5,2.5 0 1 1 5,0 z"
           transform="matrix(1.5555012,0,0,1.5555012,-166.65037,-216.08998)" />
      </g>
    </g>
  </g>
  <g
     inkscape:groupmode="layer"
     id="layer3"
     inkscape:label="vias"
     style="display:inline"
     sodipodi:insensitive="true"
     transform="translate(-2.34375e-6,-3.0761719e-6)">
    <g
       id="M1">
      <path
         inkscape:label="#pathM1"
         sodipodi:nodetypes="csc"
         inkscape:connector-curvature="0"
         id="pathM1"
         d="m 700.64064,469.00349 -362.07368,0 c -26.88888,0 -52.86959,-6.354 -76.48456,-24.03299"
         style="fill:none;stroke:#000000;stroke-width:3;stroke-linecap:butt;stroke-linejoin:miter;stroke-opacity:1" />
    </g>
    <g
       id="M2">
      <path
         inkscape:connector-curvature="0"
         id="path5244"
         d="m 511.80142,156.2217 303.40918,141.16094 0,0"
         style="fill:none;stroke:#000000;stroke-width:3;stroke-linecap:butt;stroke-linejoin:miter;stroke-opacity:1" />
    </g>
    <g
       id="M3">
      <path
         inkscape:connector-curvature="0"
         id="path5244-1"
         d="m 593.43582,156.48389 236.69452,110.12199 0,0"
         oldd="m 487.74197,357.55954 236.69452,110.12199 0,0"
         style="fill:none;stroke:#000000;stroke-width:3;stroke-linecap:butt;stroke-linejoin:miter;stroke-opacity:1"
         oldtransform="translate(105.69385,-201.07565)" />
    </g>
    <g
       id="M4">
      <path
         sodipodi:nodetypes="cssc"
         inkscape:connector-curvature="0"
         id="path5264"
         d="m 593.42172,148.77912 50.11337,-0.24808 c 15.44518,-0.0765 26.72364,2.91965 36.46864,7.44258 l 169.44274,78.64326"
         style="fill:none;stroke:#000000;stroke-width:3;stroke-linecap:butt;stroke-linejoin:miter;stroke-opacity:1" />
    </g>
    <g
       id="E1">
      <path
         sodipodi:nodetypes="ccc"
         inkscape:connector-curvature="0"
         id="path5814"
         d="M 185.8096,437.04831 C 81.188086,437.27881 23.257313,403.90693 22.582638,315.19024 l 0,-76.101"
         style="fill:none;stroke:#000000;stroke-width:3;stroke-linecap:butt;stroke-linejoin:miter;stroke-opacity:1;display:inline" />
    </g>
    <g
       id="E2"
       transform="matrix(1.0111212,0,0,1.0089718,-0.23303575,-0.7403415)">
      <path
         sodipodi:nodetypes="cccc"
         inkscape:connector-curvature="0"
         id="path5883"
         d="m 22.454182,237.44474 0,-79.29133 C 22.680122,77.773671 69.488237,25.803963 155.24962,25.357976 l 37.716,0"
         style="fill:none;stroke:#000000;stroke-width:2.97016215;stroke-linecap:butt;stroke-linejoin:miter;stroke-opacity:1" />
    </g>
    <g
       id="E3">
      <path
         inkscape:connector-curvature="0"
         id="pathE3"
         d="m 195.0707,24.831707 538.19867,0"
         style="fill:none;stroke:#000000;stroke-width:3;stroke-linecap:butt;stroke-linejoin:miter;stroke-opacity:1" />
    </g>
    <g
       id="E4">
      <path
         sodipodi:nodetypes="cssc"
         inkscape:connector-curvature="0"
         id="pathE4"
         d="m 733.97106,24.831707 152.4936,0 c 57.38005,0 123.27184,61.704724 123.62264,114.054363 0.1905,28.41793 0,68.38586 0,68.38586"
         style="fill:none;stroke:#000000;stroke-width:3;stroke-linecap:butt;stroke-linejoin:miter;stroke-opacity:1" />
    </g>
    <g
       id="E5">
      <path
         sodipodi:nodetypes="cssc"
         inkscape:connector-curvature="0"
         id="pathE5"
         d="m 1009.7365,207.62278 c 0,0 0,42.80329 0,64.20493 0,76.69996 -17.74773,135.07594 -131.21665,135.07594 -27.48298,0 -82.44894,0 -82.44894,0"
         style="fill:none;stroke:#000000;stroke-width:3;stroke-linecap:butt;stroke-linejoin:miter;stroke-opacity:1" />
    </g>
    <g
       id="E6">
      <path
         sodipodi:nodetypes="cssc"
         inkscape:connector-curvature="0"
         id="path4041-0"
         d="m 764.87186,407.1439 -51.55652,0 c -47.3592,0 -48.30957,29.69229 -92.87469,29.69229 l -358.03366,0"
         style="fill:none;stroke:#000000;stroke-width:3;stroke-linecap:butt;stroke-linejoin:miter;stroke-opacity:1" />
    </g>
    <g
       id="I1">
      <path
         sodipodi:nodetypes="cssssscc"
         inkscape:connector-curvature="0"
         id="path5906"
         d="m 223.48928,416.3765 c 0,0 -26.19655,0 -39.29482,0 -84.353547,0 -141.040329,-25.53213 -141.040329,-101.04382 0,-21.28469 0,-63.85408 0,-63.85408 0,-32.57947 10.457973,-61.92126 26.66434,-86.6591 17.614607,-26.88742 36.424719,-49.82256 79.291329,-50.17107 l 86.30826,-0.70169 c 28.48999,-0.0675 51.73374,8.25901 70.87101,23.15588"
         style="fill:none;stroke:#000000;stroke-width:3;stroke-linecap:butt;stroke-linejoin:miter;stroke-opacity:1;display:inline" />
    </g>
    <g
       id="I2">
      <path
         sodipodi:nodetypes="cccc"
         inkscape:connector-curvature="0"
         id="path5266"
         d="m 332.25172,155.34664 266.64341,161.38943 c 17.7043,10.88502 37.31568,12.23469 56.83715,14.03386 l 48.76767,0"
         style="fill:none;stroke:#000000;stroke-width:3;stroke-linecap:butt;stroke-linejoin:miter;stroke-opacity:1;display:inline" />
    </g>
    <g
       id="I3">
      <path
         sodipodi:nodetypes="csssssssscssc"
         inkscape:connector-curvature="0"
         id="path5910"
         d="m 735.19903,331.2962 119.46326,0 c 61.9812,0 108.4354,-59.81358 109.2311,-124.11626 C 964.80961,133.13678 901.17522,91.492558 845.54028,91.492558 l -328.74325,0 c -61.56605,0 -89.49852,43.820142 -108.76245,77.186252 l -52.01243,90.08818 c -38.19998,66.16432 -69.28679,66.3894 -106.57022,66.3894 0,0 -41.6338,0 -62.4507,0 -59.03584,0 -111.986185,-27.75619 -116.690713,-116.69072 l 0,-41.45222 c 0,-48.88754 32.543733,-122.06925 122.069243,-122.06925 l 17.51897,0"
         style="fill:none;stroke:#000000;stroke-width:3;stroke-linecap:butt;stroke-linejoin:miter;stroke-opacity:1" />
    </g>
    <g
       id="I4"
       transform="matrix(0.99412732,0,0,1,4.582294,0)">
      <path
         sodipodi:nodetypes="cssc"
         inkscape:connector-curvature="0"
         id="path5922"
         d="m 206.84901,44.758426 636.76791,-0.01077 c 78.32483,-0.0013 145.25389,64.301934 145.25389,120.901314 0,28.11641 0,84.34924 0,84.34924"
         style="fill:none;stroke:#000000;stroke-width:3;stroke-linecap:butt;stroke-linejoin:miter;stroke-opacity:1" />
    </g>
    <g
       id="I5">
      <path
         sodipodi:nodetypes="cssc"
         inkscape:connector-curvature="0"
         id="path5927"
         d="m 987.84836,249.7927 c 0,0 0,17.53141 0,26.29711 0,59.21652 -32.71211,110.64636 -110.64635,110.64636 l -22.32774,0"
         style="fill:none;stroke:#000000;stroke-width:3;stroke-linecap:butt;stroke-linejoin:miter;stroke-opacity:1;display:inline" />
      <path
         inkscape:connector-curvature="0"
         id="path5931"
         d="m 823.26152,386.72996 -64.38035,0"
         style="fill:none;stroke:#000000;stroke-width:3;stroke-linecap:butt;stroke-linejoin:miter;stroke-opacity:1" />
    </g>
    <g
       id="I6">
      <path
         sodipodi:nodetypes="cssc"
         inkscape:connector-curvature="0"
         id="path4041"
         d="m 727.80614,386.95091 -22.7871,0 c -47.3592,0 -48.30957,29.69229 -92.87469,29.69229 l -279.00811,0"
         style="fill:none;stroke:#000000;stroke-width:3;stroke-linecap:butt;stroke-linejoin:miter;stroke-opacity:1" />
    </g>
    <g
       id="S1">
      <path
         inkscape:connector-curvature="0"
         id="path4061"
         d="m 332.98954,416.64421 -79.45127,0"
         style="fill:none;stroke:#000000;stroke-width:3;stroke-linecap:butt;stroke-linejoin:miter;stroke-opacity:1" />
    </g>
    <g
       id="X1">
      <path
         inkscape:connector-curvature="0"
         id="path5242"
         d="m 734.7067,339.18513 89.18692,39.56972"
         style="fill:none;stroke:#000000;stroke-width:3;stroke-linecap:butt;stroke-linejoin:miter;stroke-opacity:1" />
    </g>
  </g>
  <g
     inkscape:groupmode="layer"
     id="layer4"
     inkscape:label="aux"
     transform="translate(-2.34375e-6,-3.0761719e-6)">
    <path
       transform="translate(105.69385,-201.07565)"
       style="fill:none;stroke:#000000;stroke-width:3;stroke-linecap:butt;stroke-linejoin:miter;stroke-opacity:1"
       d="m 118.05591,625.66596 c -8.36162,4.63856 -8.36162,4.63856 -8.36162,4.63856"
       id="path4003"
       inkscape:connector-curvature="0" />
  </g>
</svg>
