<?xml version="1.0" encoding="UTF-8"?>
<!-- Generator: Adobe Illustrator 15.0.2, SVG Export Plug-In . SVG Version: 6.00 Build 0)  -->
<!DOCTYPE svg PUBLIC "-//W3C//DTD SVG 1.1//EN" "http://www.w3.org/Graphics/SVG/1.1/DTD/svg11.dtd">
<svg xmlns="http://www.w3.org/2000/svg" xmlns:xlink="http://www.w3.org/1999/xlink" version="1.1" id="Layer_1" x="0px" y="0px" width="512px" height="462.172px" viewBox="-0.328 0 512 462.172" enable-background="new -0.328 0 512 462.172" xml:space="preserve">
<path d="M482.978,95.633h-97.186c-15.854,0-28.694,12.853-28.694,28.694c0,15.841,12.841,28.693,28.694,28.693h68.491v251.763  H57.061V153.02h151.678l-46.709,46.71c-11.208,11.202-11.208,29.36-0.006,40.572c5.604,5.604,12.952,8.406,20.297,8.406  s14.684-2.803,20.291-8.406l95.672-95.651c5.381-5.386,8.4-12.685,8.4-20.294c0-7.603-3.032-14.907-8.4-20.294l-95.678-95.66  c-11.212-11.208-29.37-11.202-40.582,0c-11.202,11.209-11.202,29.367,0.006,40.582l46.644,46.641H28.366  c-15.845,0-28.694,12.853-28.694,28.694v309.157c0,15.842,12.85,28.694,28.694,28.694h454.611c15.848,0,28.694-12.853,28.694-28.694  v-309.15C511.672,108.478,498.825,95.633,482.978,95.633z" fill="#000000"/>
</svg>
