<?xml version="1.0" encoding="UTF-8" standalone="no"?>
<svg
   xmlns="http://www.w3.org/2000/svg"
   width="31"
   height="46"
   id="svg6018"
   version="1.1">
    <g transform="scale(0.5) translate(-659,-331.36218)">
      <rect
         style="fill:#ffffff;fill-opacity:1;fill-rule:evenodd;stroke:#000000;stroke-width:0.5;stroke-miterlimit:4;stroke-dasharray:none"
         y="332.36218"
         x="660"
         ry="10"
         rx="10"
         height="90"
         width="60" />
      <rect
         style="fill-opacity:1;fill-rule:evenodd" class="relleno"
         y="337.36218"
         x="665"
         ry="5"
         rx="5"
         height="80"
         width="50" />
      <path
         style="fill:#ffffff;fill-opacity:1;fill-rule:evenodd;stroke:none"
         d="m 705,352.36217 c -22.09139,0 -40,17.90861 -40,40 0,5.52285 4.47715,10 10,10 22.09139,0 40,-17.90861 40,-40 0,-5.52285 -4.47715,-10 -10,-10 z" />
      <path
         class="relleno"
         d="m 690,361.11217 2.5,2.5 -10,10 c -2.5,2.5 -2.5,7.5 0,10 l 5,-5 10,-10 2.5,2.5 0,-10 z" />
      <path
         class="relleno"
         d="m 690,393.61217 -2.5,-2.5 10,-10 c 2.5,-2.5 2.5,-7.5 0,-10 l -5,5 -10,10 -2.5,-2.5 0,10 z" />
      <path
         style="fill:#ffffff;stroke:none"
         d="m 672.5,339.86216 1.25,1.25 -5,5 c -1.25,1.25 -1.25,3.75 0,5 l 2.5,-2.5 5,-5 1.25,1.25 0,-5 z" />
      <path
         style="fill:#ffffff;stroke:none"
         d="m 672.5,356.11216 -1.25,-1.25 5,-5 c 1.25,-1.25 1.25,-3.75 0,-5 l -2.5,2.5 -5,5 -1.25,-1.25 0,5 z" />
      <path
         style="fill:#ffffff;stroke:none"
         d="m 707.5,398.61216 1.25,1.25 -5,5 c -1.25,1.25 -1.25,3.75 0,5 l 2.5,-2.5 5,-5 1.25,1.25 0,-5 z" />
      <path
         style="fill:#ffffff;stroke:none"
         d="m 707.5,414.86216 -1.25,-1.25 5,-5 c 1.25,-1.25 1.25,-3.75 0,-5 l -2.5,2.5 -5,5 -1.25,-1.25 0,5 z" />
    </g>
</svg>
